<svg aria-hidden="true" style="position: absolute; width: 0; height: 0; overflow: hidden;" version="1.1" xmlns="http://www.w3.org/2000/svg" xmlns:xlink="http://www.w3.org/1999/xlink">
<defs>
<symbol id="icon-aio" viewBox="0 0 108 103">
<title>aio</title>
<defs><path id="aio-a" d="m0 0h108v103h-108z"/></defs>
<g fill-rule="evenodd">
<mask id="aio-b" fill="#fff"><use xlink:href="#aio-a"/></mask>
<path mask="url(#aio-b)" d="m90.615 39.634l-1.672 3.02c9.583 5.377 15.603 15.563 15.603 26.532 0 16.794-13.594 30.339-30.202 30.339-6.577 0-12.707-2.129-17.723-5.708 6.798-6.38 10.588-15.225 10.588-24.63v-0.56h-3.343v0.56c0 8.617-3.564 16.682-9.921 22.5-6.13-5.597-9.92-13.544-9.92-22.5 0-8.957 3.79-16.906 9.92-22.504 4.568 4.14 7.802 9.628 9.138 16.013-2.898 0.898-6.02 1.458-9.254 1.458-2.008 0-4.12-0.222-6.24-0.67l-0.667 3.359c2.339 0.447 4.678 0.78 7.023 0.78 18.5 0 33.658-15.114 33.658-33.81 0-18.698-15.158-33.813-33.658-33.813s-33.656 15.114-33.656 33.808c0 1.458 0.11 2.799 0.22 4.257-12.039 5.149-20.509 17.133-20.509 31.127 0 18.694 15.046 33.808 33.548 33.808 6.13 0 12.038-1.68 17.275-4.816l-1.783-2.91c-4.679 2.798-10.031 4.367-15.492 4.367-16.719 0-30.204-13.655-30.204-30.338s13.595-30.34 30.204-30.34c6.575 0 12.705 2.128 17.72 5.71a33.674 33.674 0 0 0 -9.809 16.903c-7.692-3.47-13.712-10.186-16.382-18.252l-3.232 1.01c3.006 9.295 10.03 16.905 18.947 20.711a27.584 27.584 0 0 0 -0.337 4.258c0.225 18.583 15.272 33.697 33.889 33.697 18.61 0 33.656-15.114 33.656-33.808-0.11-12.315-6.687-23.629-17.385-29.558m-24.3 21.832c-1.56-6.718-5.016-12.538-9.694-16.904 5.016-3.581 11.036-5.71 17.613-5.71 3.122 0 6.24 0.45 9.252 1.458-2.013 9.4-8.475 17.237-17.171 21.156m-32.767-26.09c-3.344 0-6.688 0.56-9.695 1.46-0.11-1.01-0.22-2.019-0.22-3.022 0.11-16.8 13.594-30.345 30.312-30.345s30.202 13.657 30.202 30.339c0 1.009 0 2.018-0.11 3.021-3.122-1.009-6.465-1.458-9.693-1.458-7.582 0-14.71 2.578-20.283 6.83-5.799-4.246-12.823-6.824-20.513-6.824"/>
</g>
</symbol>
<symbol id="icon-bill" viewBox="0 0 138 97">
<title>bill</title>
<path fill-rule="evenodd" d="m2.298 27.466c-1.478 0.356-2.296 2.07-2.055 3.277l14.743 63.857c0.322 1.393 1.887 2.367 3.283 2.045l117.43-27.112c1.397-0.322 2.376-1.884 2.055-3.277l-14.75-63.856c-0.322-1.393-1.887-2.367-3.283-2.045l-117.43 27.111zm4.302 4.138l34.06-7.864c-6.276 8.831-8.8 20.715-6.035 32.696 2.771 12.003 10.263 21.567 19.8 26.731l-34.103 7.873-13.722-59.436zm43.658-10.08l24.736-5.71c11.323 2.789 21.151 12.458 24.211 25.713 3.069 13.29-1.57 26.284-10.573 33.743l-24.567 5.672c-11.361-2.758-21.228-12.403-24.296-25.693-3.06-13.255 1.535-26.254 10.489-33.724zm34.334-7.926l34.06-7.863 13.722 59.436-34.102 7.873c6.307-8.822 8.848-20.702 6.077-32.705-2.766-11.98-10.245-21.555-19.757-26.74zm-21.13 12.062c-1.415 0.327-2.287 1.773-1.951 3.228l0.409 1.772c-4.178 2.077-6.67 6.89-5.474 12.068 0.762 3.303 2.933 5.527 5.173 6.53 2.24 1 4.391 1.19 6.276 1.631 3.321 0.6 6.765 1.28 7.447 4.139 0.813 3.522-0.751 5.727-3.865 6.446-2.414 0.558-4.885-0.897-6.246-2.594-0.828-1.247-2.693-1.54-3.804-0.597-1.11 0.943-1.21 2.92-0.174 3.99 1.993 2.49 5.245 4.683 9.055 4.722l0.333 1.441c0.336 1.455 1.754 2.372 3.17 2.045 1.413-0.326 2.287-1.772 1.951-3.227l-0.361-1.566c3.895-2.201 6.172-6.848 5.021-11.833-0.762-3.303-2.902-5.578-5.142-6.581-2.242-1-4.432-1.182-6.318-1.622-3.307-0.603-6.763-1.273-7.436-4.097-0.813-3.522 0.75-5.727 3.864-6.446 2.414-0.557 4.876 0.855 6.237 2.552 0.828 1.247 2.734 1.53 3.844 0.588 1.109-0.943 1.169-2.91 0.134-3.98-1.903-2.373-4.96-4.452-8.536-4.669l-0.437-1.894c-0.336-1.456-1.756-2.372-3.17-2.046z"/>
</symbol>
<symbol id="icon-communication" viewBox="0 0 108 108">
<title>communication</title>
<g fill-rule="evenodd">
<path d="m105.28 26.492c-2.33-12.226-11.782-21.539-23.853-23.872a145.44 145.44 0 0 0 -54.962 0c-12.213 2.326-21.517 11.79-23.848 23.872a145.87 145.87 0 0 0 0 55.016c2.324 12.226 11.778 21.539 23.848 23.872 9.16 1.747 18.321 2.62 27.481 2.62s18.321-0.873 27.481-2.62c12.214-2.326 21.517-11.79 23.848-23.872a140.23 140.23 0 0 0 0 -55.016zm-5.09 54c-1.889 10.042-9.74 17.759-19.773 19.792-17.591 3.35-35.333 3.35-52.924 0-10.033-1.89-17.741-9.75-19.772-19.792-3.347-17.609-3.347-35.368 0-52.977 1.887-10.042 9.74-17.759 19.772-19.792 8.724-1.746 17.591-2.476 26.465-2.476 8.868 0 17.742 0.873 26.466 2.476 10.032 1.89 17.741 9.75 19.772 19.792 3.34 17.609 3.34 35.361-0.007 52.977z"/>
<path d="m66.974 35h-26.09c-6.524 0-11.884 5.391-11.884 11.95v12.683c0 6.56 5.36 11.95 11.883 11.95h7.1c0.578 0 1.305 0.295 1.74 0.732l4.056 4.08c1.012 1.016 2.317 1.605 3.771 1.605 1.447 0 2.752-0.58 3.771-1.606l4.056-4.08a2.392 2.392 0 0 1 1.74 -0.73c6.522 0 11.883-5.391 11.883-11.951v-12.683c-0.143-6.56-5.503-11.95-12.026-11.95zm6.026 24.116a6.484 6.484 0 0 1 -6.5 6.517c-2.025 0-3.9 0.869-5.342 2.314l-4.042 4.053-4.042-4.053c-1.443-1.445-3.325-2.314-5.343-2.314h-7.231a6.484 6.484 0 0 1 -6.5 -6.517v-12.6a6.484 6.484 0 0 1 6.5 -6.516h26c3.609 0 6.5 2.899 6.5 6.517v12.599z"/>
</g>
</symbol>
<symbol id="icon-community" viewBox="0 0 142 122">
<title>community</title>
<g fill-rule="evenodd">
<path d="m25.5 85c8.55 0 15.5-6.949 15.5-15.5 0-8.54-6.95-15.5-15.5-15.5-8.551 0-15.5 6.95-15.5 15.5 0.008 8.543 6.957 15.5 15.5 15.5zm0-26.323c5.968 0 10.823 4.855 10.823 10.823 0 5.97-4.855 10.823-10.823 10.823s-10.823-4.853-10.823-10.823c0.008-5.968 4.855-10.823 10.823-10.823zm-0.499 31.323c-13.787 0-25.001 10.98-25.001 24.48 0 4.14 3.451 7.52 7.69 7.52h34.62c4.24 0 7.69-3.376 7.69-7.525 0.008-13.5-11.214-24.48-24.999-24.48zm17.318 27.369h-34.63c-1.625 0-2.957-1.295-2.957-2.894 0-10.942 9.095-19.836 20.269-19.836 11.18 0 20.267 8.902 20.267 19.836 0.008 1.6-1.321 2.894-2.949 2.894zm28.181-60.37c8.55 0 15.5-6.949 15.5-15.5 0-8.55-6.95-15.5-15.5-15.5s-15.5 6.95-15.5 15.5c0 8.543 6.95 15.5 15.5 15.5zm0-26.323c5.968 0 10.823 4.855 10.823 10.823s-4.855 10.823-10.823 10.823-10.823-4.855-10.823-10.823 4.855-10.823 10.823-10.823zm26.5 54.798c0-13.492-11.214-24.475-25-24.475s-25 10.975-25 24.475c0 4.15 3.451 7.525 7.691 7.525h34.619c4.239 0 7.69-3.376 7.69-7.525zm-7.691 2.894h-34.619c-1.636 0-2.959-1.303-2.959-2.894 0-10.942 9.096-19.844 20.268-19.844 11.18 0 20.268 8.902 20.268 19.844 0 1.6-1.323 2.894-2.96 2.894zm27.191-3.369c8.551 0 15.5-6.949 15.5-15.5 0-8.54-6.949-15.5-15.5-15.5-8.55 0-15.5 6.95-15.5 15.5 0 8.543 6.95 15.5 15.5 15.5zm0-26.323c5.968 0 10.823 4.855 10.823 10.823 0 5.97-4.855 10.823-10.823 10.823s-10.82-4.853-10.82-10.823c0-5.968 4.855-10.823 10.823-10.823zm0.5 31.323c-13.79 0-25 10.98-25 24.47 0 4.15 3.45 7.527 7.69 7.527h34.62c4.239 0 7.69-3.376 7.69-7.527 0-13.48-11.21-24.47-25-24.47zm17.312 27.376h-34.63c-1.634 0-2.957-1.301-2.957-2.895 0-10.944 9.094-19.84 20.267-19.84 11.182-0.009 20.277 8.896 20.277 19.84 0 1.6-1.332 2.895-2.957 2.895zm-63.31-100.38c1.104 0 2-1.06 2-2.368v-12.264c0-1.308-0.896-2.368-2-2.368s-2 1.06-2 2.368v12.264c0 1.308 0.896 2.368 2 2.368zm36.29 15c0.59 0 1.17-0.222 1.625-0.67l8.406-8.41c0.9-0.9 0.9-2.351 0-3.245-0.901-0.9-2.352-0.9-3.243 0l-8.406 8.41a2.285 2.285 0 0 0 0 3.246c0.439 0.447 1.028 0.669 1.618 0.669zm-75.218-0.67a2.29 2.29 0 0 0 1.626 0.67c0.59 0 1.17-0.222 1.626-0.67 0.901-0.9 0.901-2.35 0-3.244l-8.406-8.411c-0.9-0.9-2.35-0.9-3.243 0-0.9 0.902-0.9 2.353 0 3.245l8.397 8.41zm16.581-12.786c0.361 0.907 1.2 1.456 2.087 1.456 0.29 0 0.58-0.057 0.863-0.18 1.153-0.499 1.703-1.873 1.223-3.078l-4.479-11.284c-0.478-1.205-1.797-1.776-2.95-1.278-1.153 0.499-1.703 1.875-1.223 3.078l4.479 11.286zm41.744 1.276c0.283 0.123 0.572 0.18 0.863 0.18 0.886 0 1.726-0.549 2.087-1.456l4.48-11.286c0.48-1.203-0.07-2.58-1.224-3.078-1.153-0.498-2.472 0.073-2.95 1.278l-4.48 11.284c-0.48 1.205 0.07 2.58 1.224 3.078z"/>
</g>
</symbol>
<symbol id="icon-discounts" viewBox="0 0 114 118">
<title>discounts</title>
<defs>
<path id="discounts-a" d="m0 0h114v118h-114z"/></defs>
<g fill-rule="evenodd">
<mask id="discounts-b" fill="#fff"><use xlink:href="#discounts-a"/></mask>
<path mask="url(#discounts-b)" d="m113.49 40.772a9.343 9.343 0 0 0 -4.958 -5.559l-11.324-5.227-1.52-12.31a9.282 9.282 0 0 0 -3.79 -6.396 9.4 9.4 0 0 0 -7.306 -1.602l-12.201 2.365-8.555-9.08a9.41 9.41 0 0 0 -13.706 0l-8.563 9.08-12.255-2.372a9.421 9.421 0 0 0 -7.306 1.602 9.308 9.308 0 0 0 -3.793 6.41l-1.516 12.307-11.327 5.23a9.32 9.32 0 0 0 -4.923 5.565 9.262 9.262 0 0 0 0.743 7.374l6.06 10.841-6.06 10.84a9.204 9.204 0 0 0 -0.716 7.388 9.304 9.304 0 0 0 4.957 5.559l11.326 5.228 1.517 12.31a9.287 9.287 0 0 0 3.793 6.396 9.398 9.398 0 0 0 7.305 1.601l12.195-2.365 8.516 9.08a9.406 9.406 0 0 0 13.706 0l8.602-9.08 12.254 2.372a9.423 9.423 0 0 0 7.306 -1.602 9.306 9.306 0 0 0 3.793 -6.41l1.517-12.307 11.326-5.23a9.332 9.332 0 0 0 4.957 -5.552 9.265 9.265 0 0 0 -0.716 -7.393l-6.11-10.838 6.06-10.84a9.288 9.288 0 0 0 0.722 -7.388zm-6.334 4.3l-6.924 12.381a3.157 3.157 0 0 0 0 3.101l6.924 12.382a2.91 2.91 0 0 1 -1.285 4.066l-12.93 5.991a3.202 3.202 0 0 0 -1.84 2.551l-1.732 14.029a2.938 2.938 0 0 1 -3.492 2.551l-14.048-2.757a3.252 3.252 0 0 0 -2.969 0.958l-9.72 10.368a3.033 3.033 0 0 1 -4.315 0l-9.727-10.368a3.241 3.241 0 0 0 -2.348 -1.024 3.43 3.43 0 0 0 -0.615 0l-14 2.784c-1.693 0.331-3.304-0.85-3.493-2.55l-1.732-14.03a3.186 3.186 0 0 0 -1.84 -2.551l-12.907-5.941a2.908 2.908 0 0 1 -1.285 -4.065l6.924-12.382a3.167 3.167 0 0 0 0 -3.102l-6.924-12.383a2.907 2.907 0 0 1 1.285 -4.064l12.843-6.005a3.203 3.203 0 0 0 1.84 -2.55l1.732-14.03a2.937 2.937 0 0 1 3.492 -2.55l14.015 2.715a3.259 3.259 0 0 0 2.97 -0.955l9.72-10.37a3.03 3.03 0 0 1 4.313 0l9.72 10.37a3.255 3.255 0 0 0 2.97 0.955l14.013-2.715a2.936 2.936 0 0 1 3.491 2.55l1.734 14.03a3.189 3.189 0 0 0 1.839 2.55l12.918 5.985a2.909 2.909 0 0 1 1.283 4.066l0.088 0.013zm-34.162-1.596l-26.918 34.92c-2.57 3.402-7.707-0.425-5.138-3.826l26.938-34.966c2.569-3.401 7.706 0.425 5.138 3.826l-0.026 0.046zm-2.168 15.922c-5.612 0.04-10.155 4.55-10.194 10.125v2.105c0 5.593 4.568 10.123 10.194 10.123 5.632 0 10.201-4.53 10.201-10.123v-2.105c-0.04-5.581-4.59-10.09-10.201-10.125zm3.772 12.244c0 5.001-7.551 5.001-7.551 0v-2.12c0-5.002 7.551-5.002 7.551 0v2.12zm-21.271-23.165v-2.105c0-5.593-4.568-10.123-10.194-10.123-5.633 0-10.201 4.53-10.201 10.123v2.105c0 5.595 4.568 10.125 10.194 10.125 5.633 0 10.201-4.53 10.201-10.125zm-13.973 0v-2.105c0-5.001 7.552-5.001 7.552 0v2.105c0 5.004-7.552 5.004-7.552 0z"/>
</g>
</symbol>
<symbol id="icon-envelope" viewBox="0 0 123 62">
<title>envelope</title>
<defs>
<path id="envelope-a" d="m0 0h122.68v61.994h-122.68z"/>
</defs>
<g fill-rule="evenodd">
<mask id="envelope-b" fill="#fff"><use xlink:href="#envelope-a"/></mask>
<path mask="url(#envelope-b)" d="m1.89 0.057c-1.447-0.01-1.89 0.975-1.89 2.226v57.833c0 1.035 0.861 1.878 1.915 1.878h118.82c2.051 0 1.917-1.947 1.917-3.556v-56.182c0.187-1.146-0.727-2.182-1.917-2.164-39.61-0.252-79.254 0.112-118.85-0.035zm1.943 58.173h114.98v-54.392h-114.98v54.393zm7.987-48.462c-2.6-0.043-2.6 3.799 0 3.757h99.012c2.599 0.042 2.599-3.8 0-3.757h-99.01zm0 9.695c-2.592-0.036-2.592 3.79 0 3.754h59.405c2.592 0.036 2.592-3.79 0-3.754h-59.405zm0 9.693c-2.592-0.034-2.592 3.79 0 3.757h39.605c2.593 0.033 2.593-3.79 0-3.757h-39.605zm79.204 15.466c-2.6-0.042-2.6 3.8 0 3.757h19.799c2.601 0.043 2.601-3.799 0-3.757h-19.8z"/>
</g>
</symbol>
<symbol id="icon-expense" viewBox="0 0 126 96">
<title>expense</title>
<path fill-rule="evenodd" d="m126 25.14c0-14.093-17.73-25.14-40.374-25.14-22.633 0-40.374 11.038-40.374 25.14v5.422c-1.611-0.118-3.21-0.259-4.878-0.25-22.64 0.001-40.374 11.041-40.374 25.135v15.42c0 14.093 17.733 25.133 40.374 25.133 22.633 0 40.374-11.04 40.374-25.139l-0.007-5.363c1.596 0.116 3.23 0.19 4.885 0.19 22.644 0.006 40.374-11.034 40.374-25.127l-0.022-14.622c0.015-0.265 0.022-0.527 0.022-0.8m-40-20.139c18.672 0 34.49 8.871 35 19.49l-0.007 1.162c-0.62 10.558-16.39 19.348-34.983 19.348-18.98 0-35.007-9.152-35.007-20-0.007-10.84 16.02-20 35-20m-46 86c-18.975 0-35-9.242-35-20.176v-2.824c6.895 7.664 19.848 12.722 35 12.722s28.105-5.058 34.993-12.714l0.007 2.816c0 10.934-16.025 20.176-35 20.176m0.395-15c-19.19 0-35.395-9.156-35.395-19.996 0-10.845 16.206-20.004 35.395-20.004 1.68 0 3.3 0.155 4.926 0.298v4.664c0 11.141 10.971 20.358 26.679 23.866-5.885 6.552-17.983 11.172-31.605 11.172m45.605-15c-18.975 0-35-9.233-35-20.175v-2.825c6.895 7.663 19.848 12.721 35 12.721s28.105-5.058 34.994-12.713l0.006 2.817c0 10.942-16.02 20.175-35 20.175"/>
</symbol>
<symbol id="icon-keys" viewBox="0 0 126 106">
<title>keys</title>
<defs><path id="keys-a" d="m0 0h125.98v105.28h-125.98z"/></defs>
<g fill-rule="evenodd" transform="translate(0 .356)">
<mask id="keys-b" fill="#fff"><use xlink:href="#keys-a"/></mask>
<path mask="url(#keys-b)" d="m125.37 91.124l-3.332-3.27a2.164 2.164 0 0 0 -0.684 -0.452c-0.008-0.007-0.023-0.007-0.03-0.007a2.114 2.114 0 0 0 -0.766 -0.15h-4.513v-4.425a1.99 1.99 0 0 0 -0.153 -0.753c-0.007-0.006-0.007-0.02-0.007-0.028a1.999 1.999 0 0 0 -0.46 -0.672l-4.512-4.432a2.161 2.161 0 0 0 -0.684 -0.45c-0.008-0.008-0.023-0.008-0.03-0.008a2.114 2.114 0 0 0 -0.765 -0.15h-4.506v-4.425c0-0.265-0.058-0.517-0.145-0.753-0.008-0.013-0.008-0.02-0.008-0.028a1.999 1.999 0 0 0 -0.459 -0.672l-3.595-3.53c1.961-6.622 0.103-13.874-4.914-18.808-3.66-3.594-8.521-5.57-13.699-5.57h-0.007c-1.312 0-2.594 0.129-3.848 0.38-2.945-6.615-8.406-12.8-13.057-16.818l1.917-10.093a2.04 2.04 0 0 0 -0.577 -1.833l-13.822-13.576a2.108 2.108 0 0 0 -1.866 -0.564l-18.006 3.294a2.137 2.137 0 0 0 -1.101 0.564l-31.122 30.527a2.028 2.028 0 0 0 0 2.914l28.475 27.965c0.394 0.386 0.926 0.601 1.488 0.601 0.554 0 1.094-0.215 1.487-0.601l20.412-20.046c3.004 4.432 6.773 8.118 11.074 10.781a18.812 18.812 0 0 0 4.827 19.002c3.695 3.63 8.682 5.578 13.75 5.578 1.8 0 3.614-0.26 5.387-0.766l24.661 24.218c0.351 0.344 0.803 0.551 1.3 0.596l6.808 0.608a2.1 2.1 0 0 0 2.195 -1.438l3.403-10.64a2.022 2.022 0 0 0 -0.516 -2.07zm-94.79-30.199l-25.508-25.042 4.25-4.174 25.508 25.051-4.249 4.166zm7.217-7.086l-25.5-25.051 21.944-21.55 16.278-2.978 12.263 12.043-3.032 15.986-6.365 6.25c-1.75-3.536-3.02-7.446-3.704-11.611 1.043-0.38 2.011-0.953 2.821-1.749a7.555 7.555 0 0 0 0 -10.817 7.808 7.808 0 0 0 -5.51 -2.241 7.81 7.81 0 0 0 -5.512 2.241 7.556 7.556 0 0 0 0 10.817 7.825 7.825 0 0 0 4.01 2.099c0.822 5.176 2.47 10.016 4.782 14.317l-12.474 12.245zm11.38-31.301a42.393 42.393 0 0 1 -0.095 -2.764c0-1.138-0.94-2.062-2.099-2.062-1.16 0-2.1 0.924-2.1 2.062 0 0.981 0.043 1.956 0.095 2.922a3.49 3.49 0 0 1 -0.539 -5.42 3.603 3.603 0 0 1 2.536 -1.032 3.59 3.59 0 0 1 2.537 1.032 3.49 3.49 0 0 1 0 4.99c-0.094 0.1-0.219 0.186-0.334 0.272zm6.32 19.745l7.67-7.531a2.02 2.02 0 0 0 0.576 -1.082l0.526-2.776c4.257 4.057 7.887 8.898 9.936 13.295a19.229 19.229 0 0 0 -5.832 3.93 19.183 19.183 0 0 0 -3.15 4.094c-3.79-2.462-7.1-5.856-9.726-9.93zm63.484 58.728l-4.367-0.393-25.027-24.572a2.115 2.115 0 0 0 -2.21 -0.465l-0.007-0.013c-5.547 2.01-11.838 0.658-16.023-3.451-3.88-3.809-5.2-9.179-3.995-14.061a30.65 30.65 0 0 0 4.738 1.682c0.226 1.597 0.926 3.136 2.173 4.36a7.805 7.805 0 0 0 5.51 2.24c2.085 0 4.04-0.794 5.512-2.24a7.557 7.557 0 0 0 0 -10.819 7.809 7.809 0 0 0 -5.511 -2.24 7.807 7.807 0 0 0 -5.511 2.24 7.526 7.526 0 0 0 -1.603 2.343 26.147 26.147 0 0 1 -3.77 -1.39 14.83 14.83 0 0 1 2.457 -3.192 15.154 15.154 0 0 1 6.335 -3.737c0.007 0 0.014 0 0.022-0.008 0 0 0.007 0 0.007-0.007 1.4-0.416 2.873-0.63 4.38-0.63h0.008c4.054 0 7.867 1.546 10.731 4.367 4.185 4.11 5.572 10.288 3.515 15.737l0.015 0.007a2.018 2.018 0 0 0 0.473 2.168l3.894 3.823v5.636c0 1.138 0.94 2.062 2.1 2.062h5.737l3.28 3.22v5.636c0 1.138 0.94 2.061 2.1 2.061l5.737-0.007 1.816 1.782-2.516 7.86zm-39.205-44.386c-0.934 0-1.852-0.058-2.77-0.157 0.073-0.094 0.138-0.187 0.226-0.274a3.602 3.602 0 0 1 2.536 -1.03c0.963 0 1.86 0.365 2.539 1.03a3.49 3.49 0 0 1 0 4.991c-1.357 1.333-3.72 1.333-5.082 0a3.69 3.69 0 0 1 -0.482 -0.594c0.998 0.1 2.004 0.166 3.018 0.166 1.16 0 2.099-0.924 2.099-2.063 0.016-1.145-0.925-2.069-2.084-2.069z"/>
</g>
</symbol>
<symbol id="icon-maintenance" viewBox="0 0 104 127">
<title>maintenance</title>
<defs><path id="maintenance-a" d="m0 0h103.24v126.42h-103.24z"/></defs>
<g fill-rule="evenodd">
<mask id="maintenance-b" fill="#fff"><use xlink:href="#maintenance-a"/></mask>
<path mask="url(#maintenance-b)" d="m7.86 72.574c-2.093 4.048-3.72 7.92-3.498 12.302 0.158 3.108 2.373 5.667 5.309 6.095l-1.81-18.397zm89.737 49.526v-6.503h-41.007l-2.285 6.503h43.29zm-85.415-52.358c0.117 2.082 0.166 4.051 0.35 6.01 0.471 5.019 1.016 10.032 1.493 15.05 0.062 0.655 0.256 0.87 0.94 0.876 3.963 0.043 7.774-0.692 11.467-2.07 5.457-2.036 10.24-5.133 14.485-9.031 3.189-2.93 5.985-6.183 7.976-10.04 0.125-0.243 0.215-0.503 0.34-0.795h-37.05zm2.499 26.386c0.306 2.2 0.535 4.512 0.964 6.788 0.83 4.402 1.789 8.781 2.665 13.176 0.49 2.455 1.997 3.824 4.473 4.224 0.13 0.021 0.256 0.057 0.384 0.083 4.793 0.986 9.655 1.308 14.523 1.084 3.468-0.159 6.923-0.665 10.371-1.109 1.987-0.256 3.213-1.373 3.595-3.41 0.75-3.992 1.722-7.947 2.372-11.954 0.883-5.45 1.587-10.927 2.301-16.402a535 535 0 0 0 1.505 -12.897c0.208-1.972 0.26-3.96 0.386-6.009-1.352 0-2.469 0.023-3.584-0.01-0.508-0.014-0.727 0.166-0.921 0.636a28.934 28.934 0 0 1 -1.516 3.146c-2.642 4.667-6.226 8.567-10.363 11.977-5.988 4.936-12.691 8.506-20.458 9.882-2.188 0.388-4.42 0.531-6.697 0.795zm58.854 15.139h26.017c2.082 0 2.441 0.36 2.442 2.444 0 2.525 0.004 5.05-0.005 7.573-0.002 0.495 0.047 0.842 0.554 1.198 0.947 0.666 0.723 1.752 0.538 2.688-0.174 0.877-0.928 1.21-1.788 1.232-0.954 0.025-1.91 0.007-2.865 0.007h-44.662c-2.203 0-2.564-0.31-2.832-2.44-6.824 1.969-13.806 2.056-20.816 1.636-3.347-0.2-6.654-0.696-9.891-1.641-2.854-0.833-4.821-2.51-5.563-5.348-0.938-3.588-1.865-7.188-2.564-10.826-0.725-3.772-1.203-7.592-1.715-11.4-0.1-0.743-0.425-0.928-1.073-1.067-4.132-0.89-7.226-3.045-8.628-7.118-1.037-3.013-0.772-6.054-0.016-9.082 1.28-5.128 3.716-9.708 6.878-13.939 0.662-0.885 1.693-1.055 2.587-0.35 0.614 0.486 1.237 0.613 1.99 0.612 12.583-0.016 25.164-0.008 37.746-0.024 0.466 0 0.928-0.24 1.4-0.285 0.668-0.064 1.347-0.107 2.014-0.06 1.098 0.078 2.186 0.29 3.284 0.343 1.281 0.063 2.568 0.01 3.853 0.017 1.53 0.007 1.995 0.487 2.053 1.955 0.187 4.738-0.35 9.425-0.945 14.112-0.547 4.295-1.013 8.601-1.602 12.89-0.768 5.597-1.621 11.182-2.444 16.817h11.708v-1.273c0-35.634 0-71.268 0.009-106.9 0-0.543 0.064-1.098 0.195-1.623 0.239-0.96 1.004-1.334 1.912-1.413 0.924-0.08 1.784 0.486 2.039 1.363 0.15 0.517 0.183 1.08 0.183 1.622 0.008 35.635 0.007 71.269 0.007 106.9v1.372z"/>
</g>
</symbol>
<symbol id="icon-occupancy" viewBox="0 0 101 149">
<title>occupancy</title>
<g fill-rule="evenodd">
<path d="m98.03 143.04h-8.914v-116.22a2.972 2.972 0 0 0 -2.97 -2.98h-32.676v-20.86a2.973 2.973 0 0 0 -2.97 -2.98 2.973 2.973 0 0 0 -2.97 2.98v20.86h-32.677a2.972 2.972 0 0 0 -2.97 2.98v116.22h-8.913a2.973 2.973 0 0 0 -2.97 2.98 2.973 2.973 0 0 0 2.97 2.98h95.06a2.973 2.973 0 0 0 2.97 -2.98 2.973 2.973 0 0 0 -2.97 -2.98zm-80.208-113.24h65.354v113.24h-11.882v-26.82a2.972 2.972 0 0 0 -2.971 -2.981h-17.823a2.973 2.973 0 0 0 -2.97 2.98v26.82h-29.708v-113.24zm47.529 113.24h-11.881v-23.84h11.88v23.84z"/><path d="m33 113c-1.661 0-3 1.341-3 3v6c0 1.659 1.339 3 3 3 1.659 0 3-1.341 3-3v-6c0-1.659-1.341-3-3-3zm0-24c-1.661 0-3 1.341-3 3v6c0 1.659 1.339 3 3 3 1.659 0 3-1.341 3-3v-6c0-1.659-1.341-3-3-3zm18 12c1.659 0 3-1.341 3-3v-6c0-1.659-1.341-3-3-3s-3 1.341-3 3v6c0 1.659 1.341 3 3 3zm18 0c1.661 0 3-1.341 3-3v-6c0-1.659-1.339-3-3-3-1.659 0-3 1.341-3 3v6c0 1.659 1.341 3 3 3zm-36-36c-1.661 0-3 1.341-3 3v6c0 1.659 1.339 3 3 3 1.659 0 3-1.341 3-3v-6c0-1.659-1.341-3-3-3zm18 12c1.659 0 3-1.341 3-3v-6c0-1.659-1.341-3-3-3s-3 1.341-3 3v6c0 1.659 1.341 3 3 3zm18 0c1.661 0 3-1.341 3-3v-6c0-1.659-1.339-3-3-3-1.659 0-3 1.341-3 3v6c0 1.659 1.341 3 3 3zm-36-36c-1.661 0-3 1.341-3 3v6c0 1.659 1.339 3 3 3 1.659 0 3-1.341 3-3v-6c0-1.659-1.341-3-3-3zm18 12c1.659 0 3-1.341 3-3v-6c0-1.659-1.341-3-3-3s-3 1.341-3 3v6c0 1.659 1.341 3 3 3zm18 0c1.661 0 3-1.341 3-3v-6c0-1.659-1.339-3-3-3-1.659 0-3 1.341-3 3v6c0 1.659 1.341 3 3 3z"/>
</g>
</symbol>
<symbol id="icon-transparency" viewBox="0 0 92.000000 105.000000">
<title>transparency</title>
<g transform="translate(0 105) scale(0.1 -0.1)">
<path d="m218 922l-218-126v-271-271l220-127c121-70 228-127 238-127 9 0 116 58 237 128l220 127v270 270l-220 127c-121 70-229 127-240 127s-118-57-237-127zm474-54c87-50 155-94 153-98-6-9-371-220-380-220s-374 211-380 219c-2 5 82 58 188 119l192 111 35-21c19-11 106-61 192-110zm-425-253c84-47 155-90 158-94 4-7-356-221-370-221-3 0-5 99-5 221v221l33-20c17-11 101-59 184-107zm609-312c-2-2-87 44-190 103-129 74-183 111-176 118 5 5 90 56 188 112l177 101 3-215c1-118 1-217-2-219zm-426-27v-225l-194 112c-107 62-192 115-188 119 7 6 374 218 380 218 1 0 2-101 2-224zm237 99c84-47 155-90 158-94 4-7-356-221-370-221-3 0-5 99-5 221v221l33-20c17-11 101-59 184-107z"/>
</g>
</symbol>
<symbol id="icon-turnover" viewBox="0 0 99 99">
<title>turnover</title>
<g fill-rule="evenodd">
<path d="m90.75 0h-82.5c-4.539 0-8.25 3.712-8.25 8.25v82.5c0 4.539 3.712 8.25 8.25 8.25h82.5c4.538 0 8.25-3.712 8.25-8.25v-82.5c0-4.539-3.712-8.25-8.25-8.25zm4.125 90.75a4.135 4.135 0 0 1 -4.124 4.125h-82.502a4.135 4.135 0 0 1 -4.124 -4.124v-66h90.75v66zm0-70.125h-90.75v-12.375a4.135 4.135 0 0 1 4.125 -4.125h82.502a4.135 4.135 0 0 1 4.124 4.124v12.376z"/><path d="m80.499 18c-2.369 0-4.499-1.896-4.499-4.501s1.894-4.499 4.499-4.499 4.501 1.894 4.501 4.499-2.132 4.501-4.501 4.501zm0-7.106c-1.42 0-2.605 1.184-2.605 2.605 0 1.42 1.184 2.605 2.605 2.605 1.42 0 2.605-1.184 2.605-2.605 0-1.42-1.184-2.605-2.605-2.605zm9.002 7.106c-2.369 0-4.501-1.896-4.501-4.501s1.896-4.499 4.501-4.499 4.499 1.894 4.499 4.499-2.13 4.501-4.499 4.501zm0-7.106a2.627 2.627 0 0 0 -2.605 2.605 2.627 2.627 0 0 0 2.605 2.605c1.42 0 2.605-1.184 2.605-2.605 0-1.42-1.184-2.605-2.605-2.605z"/><path d="m72.501 18c-2.369 0-4.501-1.896-4.501-4.501s1.896-4.499 4.501-4.499 4.499 1.894 4.499 4.499-2.132 4.501-4.499 4.501zm0-7.106c-1.42 0-2.605 1.184-2.605 2.605 0 1.42 1.184 2.605 2.605 2.605 1.42 0 2.605-1.184 2.605-2.605 0-1.42-1.184-2.605-2.605-2.605zm-11.581 4.106h-47.84c-1.248 0-2.08-0.8-2.08-2s0.832-2 2.08-2h47.84c1.248 0 2.08 0.8 2.08 2s-0.832 2-2.08 2zm28.199 19l-20.59 20.193-7.411-7.27v-0.202l-1.441-1.21-1.44-1.414h-0.208l-1.235 1.413-1.44 1.413-13.797 15.347-11.323-9.49v-0.203l-1.648-1.21-1.44-1.212h-0.206l-1.235 1.616-1.235 1.413-16.47 20.393 3.294 2.423 16.266-20.193 12.764 10.904 1.648 1.213 1.235-1.415 15.03-16.557 7.41 7.068 2.884 2.826 23.469-23.018z"/>
</g>
</symbol>
</defs>
</svg>
